<?xml version="1.0" encoding="UTF-8" standalone="no"?>
<!DOCTYPE svg PUBLIC "-//W3C//DTD SVG 1.1//EN" "http://www.w3.org/Graphics/SVG/1.1/DTD/svg11.dtd">
<svg width="100%" height="100%" viewBox="0 0 192 229" version="1.1" xmlns="http://www.w3.org/2000/svg" xmlns:xlink="http://www.w3.org/1999/xlink" xml:space="preserve" xmlns:serif="http://www.serif.com/" style="fill-rule:evenodd;clip-rule:evenodd;stroke-linejoin:round;stroke-miterlimit:2;">
    <g transform="matrix(1,0,0,1,-1007.58,-246.699)">
        <path id="青金魚" d="M1032.29,471.712C1024.46,471.101 1017.55,468.026 1012.49,460.733C1007.51,453.573 1006.62,446.19 1008.47,438.793C1007.19,436.492 1007.99,431.551 1010.66,426.612C1013.41,421.514 1017.25,418.07 1019.89,418.091C1020,417.949 1020.12,417.808 1020.24,417.667C1024.38,412.597 1040.05,392.163 1052.85,379.871L1038.96,350.777C1046.8,342.007 1056,339.963 1066.65,345.117L1065.59,370.237C1079.75,362.838 1096.56,363.821 1109.62,372.032C1120.38,358.928 1127.27,337.294 1125.89,313.663C1124.09,282.713 1108.61,256.81 1090.95,249.384C1107.15,248.441 1122.16,257.663 1132.28,272.742C1147.51,282.54 1157.03,306.225 1154.8,332.907C1154.74,333.703 1154.66,334.494 1154.57,335.28C1154.9,333.654 1155.2,332.009 1155.46,330.346C1160.66,297.011 1149.56,265.99 1131.66,254.864C1161.08,259.449 1180.06,294.569 1174.03,333.241C1173.14,338.917 1171.77,344.355 1169.98,349.49C1173.11,343.444 1175.52,336.868 1177.01,329.873C1184.62,294.352 1166.44,259.132 1137.43,246.699C1175.52,254.851 1200.76,290.042 1196.41,327.101C1202.47,344.662 1196.74,366.599 1180.39,382.032C1165.16,396.404 1144.83,401.257 1128.23,396.154C1133.52,412.913 1128.38,431.717 1114.46,443.359L1137.68,450.904C1138.8,462.684 1133.68,470.591 1122.73,474.877L1100.4,451.822C1085.1,459.082 1063.32,466.229 1056.29,468.272C1056.08,470.992 1051.2,473.78 1044.93,474.656C1038.72,475.522 1033.32,474.215 1032.29,471.712Z" style="fill:url(#_Linear1);"/>
    </g>
    <defs>
        <linearGradient id="_Linear1" x1="0" y1="0" x2="1" y2="0" gradientUnits="userSpaceOnUse" gradientTransform="matrix(161.218,-169.738,169.738,161.218,1023.54,452.554)"><stop offset="0" style="stop-color:rgb(20,75,218);stop-opacity:1"/><stop offset="0.44" style="stop-color:rgb(91,130,229);stop-opacity:1"/><stop offset="1" style="stop-color:white;stop-opacity:1"/></linearGradient>
    </defs>
</svg>
