<?xml version="1.0" encoding="UTF-8" standalone="no"?>
<!DOCTYPE svg PUBLIC "-//W3C//DTD SVG 1.1//EN" "http://www.w3.org/Graphics/SVG/1.1/DTD/svg11.dtd">
<svg width="100%" height="100%" viewBox="0 0 215 228" version="1.1" xmlns="http://www.w3.org/2000/svg" xmlns:xlink="http://www.w3.org/1999/xlink" xml:space="preserve" xmlns:serif="http://www.serif.com/" style="fill-rule:evenodd;clip-rule:evenodd;stroke-linejoin:round;stroke-miterlimit:2;">
    <g transform="matrix(1,0,0,1,-214.757,-289.418)">
        <path id="緑金魚" d="M313.231,413.189C324.19,402.334 340.386,397.717 355.813,401.858L349.319,377.569C358.594,370.222 368.014,370.216 377.57,377.071L370.346,408.49C385.51,417.702 405.252,434.238 410.403,438.284C410.546,438.397 410.689,438.509 410.831,438.622C413.406,438.027 417.904,440.553 421.698,444.931C425.373,449.171 427.235,453.819 426.479,456.345C429.902,463.16 430.636,470.561 427.337,478.632C423.977,486.853 417.903,491.358 410.4,493.656C409.934,496.324 404.948,498.775 398.702,499.279C392.387,499.79 387.022,498.129 386.225,495.52C378.919,495.055 356.1,492.82 339.591,489.061L322.814,516.422C311.192,514.621 304.473,508.018 303,496.278L324.023,483.861C307.91,475.524 298.8,458.29 300.312,440.783C285.22,449.375 264.323,449.061 246.334,438.346C227.019,426.84 216.653,406.675 218.743,388.217C206.436,352.992 223.413,313.153 258.822,296.908C233.21,315.355 223.131,353.686 238.278,386.702C241.261,393.205 245.039,399.1 249.417,404.318C246.548,399.697 244.023,394.688 241.924,389.341C227.626,352.907 238.514,314.498 266.224,303.623C251.179,318.376 247.094,351.069 259.419,382.475C260.034,384.042 260.681,385.583 261.359,387.098C261.104,386.349 260.857,385.593 260.619,384.831C252.639,359.273 256.781,334.084 269.513,321.208C276.111,304.287 288.751,292.022 304.765,289.418C289.153,300.507 279.672,329.158 284.649,359.759C288.448,383.123 299.881,402.739 313.231,413.189Z" style="fill:url(#_Linear1);"/>
    </g>
    <defs>
        <linearGradient id="_Linear1" x1="0" y1="0" x2="1" y2="0" gradientUnits="userSpaceOnUse" gradientTransform="matrix(-214.63,-147.456,147.456,-214.63,433.638,481.611)"><stop offset="0" style="stop-color:rgb(111,191,101);stop-opacity:1"/><stop offset="0.33" style="stop-color:rgb(100,195,119);stop-opacity:1"/><stop offset="0.46" style="stop-color:rgb(75,205,158);stop-opacity:1"/><stop offset="0.57" style="stop-color:rgb(51,214,196);stop-opacity:1"/><stop offset="1" style="stop-color:white;stop-opacity:1"/></linearGradient>
    </defs>
</svg>
