<?xml version="1.0" encoding="UTF-8" standalone="no"?>
<!DOCTYPE svg PUBLIC "-//W3C//DTD SVG 1.1//EN" "http://www.w3.org/Graphics/SVG/1.1/DTD/svg11.dtd">
<svg width="100%" height="100%" viewBox="0 0 171 243" version="1.1" xmlns="http://www.w3.org/2000/svg" xmlns:xlink="http://www.w3.org/1999/xlink" xml:space="preserve" xmlns:serif="http://www.serif.com/" style="fill-rule:evenodd;clip-rule:evenodd;stroke-linejoin:round;stroke-miterlimit:2;">
    <g transform="matrix(1,0,0,1,-1275.18,-27.2603)">
        <path id="紫金魚" d="M1357.81,141.667C1349.73,156.574 1347.07,179.122 1352.9,202.063C1360.54,232.11 1380.66,254.604 1399.4,258.548C1383.68,262.546 1367.19,256.338 1354.4,243.452C1337.59,236.722 1323.74,215.274 1320.87,188.653C1320.78,187.859 1320.71,187.068 1320.64,186.28C1320.62,187.939 1320.65,189.61 1320.71,191.293C1321.93,225.008 1338.71,253.36 1358.39,260.89C1328.64,261.967 1303.34,231.086 1301.93,191.973C1301.72,186.232 1302.04,180.632 1302.82,175.25C1300.89,181.781 1299.78,188.694 1299.63,195.846C1298.91,232.164 1323.44,263.296 1354.28,270C1315.33,269.223 1283.88,239.458 1281.12,202.247C1271.84,186.154 1273.3,163.528 1286.43,145.274C1298.65,128.274 1317.69,119.653 1334.96,121.514C1326.59,106.062 1328.07,86.625 1339.52,72.554L1315.29,69.551C1311.96,58.197 1315.49,49.462 1325.43,43.176L1351.73,61.577C1365.37,51.547 1385.4,40.397 1391.91,37.057C1391.61,34.347 1395.86,30.685 1401.86,28.635C1407.79,26.607 1413.34,26.866 1414.83,29.127C1422.62,28.242 1429.99,29.952 1436.35,36.151C1442.6,42.236 1444.87,49.316 1444.45,56.931C1446.15,58.946 1446.3,63.95 1444.62,69.305C1442.89,74.833 1439.77,78.942 1437.17,79.423C1437.08,79.584 1437,79.744 1436.91,79.904C1433.8,85.669 1422.29,108.705 1412.06,123.201L1431.21,149.132C1425.18,159.23 1416.54,162.981 1405.11,159.941L1401.38,135.078C1388.88,145.028 1372.19,147.252 1357.81,141.667Z" style="fill:url(#_Linear1);"/>
    </g>
    <defs>
        <linearGradient id="_Linear1" x1="0" y1="0" x2="1" y2="0" gradientUnits="userSpaceOnUse" gradientTransform="matrix(-120.914,206.111,-206.111,-120.914,1427.44,36.342)"><stop offset="0" style="stop-color:rgb(89,94,200);stop-opacity:1"/><stop offset="0.33" style="stop-color:rgb(126,102,208);stop-opacity:1"/><stop offset="0.65" style="stop-color:rgb(238,125,233);stop-opacity:1"/><stop offset="0.81" style="stop-color:rgb(243,161,239);stop-opacity:1"/><stop offset="1" style="stop-color:white;stop-opacity:1"/></linearGradient>
    </defs>
</svg>
