<?xml version="1.0" encoding="UTF-8" standalone="no"?>
<!DOCTYPE svg PUBLIC "-//W3C//DTD SVG 1.1//EN" "http://www.w3.org/Graphics/SVG/1.1/DTD/svg11.dtd">
<svg width="100%" height="100%" viewBox="0 0 314 186" version="1.1" xmlns="http://www.w3.org/2000/svg" xmlns:xlink="http://www.w3.org/1999/xlink" xml:space="preserve" xmlns:serif="http://www.serif.com/" style="fill-rule:evenodd;clip-rule:evenodd;stroke-linejoin:round;stroke-miterlimit:2;">
    <g transform="matrix(1,0,0,1,-702.517,-37.0273)">
        <path id="赤金魚" d="M890.004,157.419C814.976,185.631 771.909,161.867 770.452,161.233C781.503,157.209 781.198,156.457 797.552,152.503L788.409,146.179C790.701,142.914 796.435,141.095 787.894,130.726C787.814,130.629 777.753,123.826 790.151,117.351C804.588,109.812 825.205,116.468 853.445,125.119C842.439,117.101 830.823,106.324 812.122,95.282C761.274,65.258 718.828,94.522 705.022,102.241C733.686,79.71 737.701,77.332 780.962,72.119C754.5,64.541 750.854,64.962 702.517,69.802C702.567,69.741 718.829,40.534 762.159,37.332C770.489,36.716 813.308,34.634 850.541,61.166C880.577,82.57 885.404,94.639 910.206,117.274C922.338,109.492 937.938,107.867 951.801,113.922L948.199,89.774C958.245,83.521 967.605,84.579 976.326,92.47L965.647,122.736C978.967,133.189 995.079,149.501 1000.04,154.882C1002.57,153.858 1007.24,156.978 1010.82,162.204C1014.37,167.372 1015.6,172.789 1013.83,174.832C1016.77,182.106 1017.1,189.661 1012.83,197.45C1008.64,205.096 1002.43,209.189 994.98,210.824C993.494,213.003 988.712,214.485 983.103,214.302C977.313,214.114 972.518,212.212 971.358,209.838C971.181,209.798 971.003,209.758 970.825,209.718C964.438,208.267 939.159,203.353 922.452,197.381L902.603,222.784C891.259,219.682 885.329,212.363 885.192,200.531L908.145,190.272C897.281,182.4 890.873,170.214 890.004,157.419Z" style="fill:url(#_Linear1);"/>
    </g>
    <defs>
        <linearGradient id="_Linear1" x1="0" y1="0" x2="1" y2="0" gradientUnits="userSpaceOnUse" gradientTransform="matrix(-290.98,-121.373,121.373,-290.98,989.535,183.201)"><stop offset="0" style="stop-color:rgb(237,81,81);stop-opacity:1"/><stop offset="0.3" style="stop-color:rgb(239,104,119);stop-opacity:1"/><stop offset="0.64" style="stop-color:rgb(246,168,221);stop-opacity:1"/><stop offset="0.84" style="stop-color:rgb(248,187,228);stop-opacity:1"/><stop offset="1" style="stop-color:white;stop-opacity:1"/></linearGradient>
    </defs>
</svg>
