<?xml version="1.0" encoding="UTF-8" standalone="no"?>
<!DOCTYPE svg PUBLIC "-//W3C//DTD SVG 1.1//EN" "http://www.w3.org/Graphics/SVG/1.1/DTD/svg11.dtd">
<svg width="100%" height="100%" viewBox="0 0 295 224" version="1.1" xmlns="http://www.w3.org/2000/svg" xmlns:xlink="http://www.w3.org/1999/xlink" xml:space="preserve" xmlns:serif="http://www.serif.com/" style="fill-rule:evenodd;clip-rule:evenodd;stroke-linejoin:round;stroke-miterlimit:2;">
    <g transform="matrix(1,0,0,1,-70.4859,-35.2203)">
        <path id="黄色金魚" d="M256.766,143.246C234.577,220.271 189.794,240.616 188.415,241.406C191.789,230.14 191.003,229.935 197.601,214.457L187.067,218.013C185.818,214.225 187.784,208.54 174.367,209.196C174.241,209.202 162.775,213.208 164.988,199.397C167.564,183.315 185.217,170.756 209.023,153.274C196.019,157.312 180.437,160.191 160.411,168.594C105.96,191.442 104.077,242.963 102.021,258.646C101.072,222.2 101.563,217.559 123.222,179.749C101.339,196.446 99.499,199.621 74.508,241.28C74.489,241.203 60.779,210.715 84.091,174.052C88.573,167.002 112.479,131.417 155.998,117.404C191.105,106.099 203.667,109.437 236.636,103.065C237.64,88.687 245.655,75.205 258.792,67.703L237.273,56.168C238.258,44.376 244.698,37.501 256.236,35.22L274.131,61.863C290.471,57.424 313.177,54.246 320.458,53.478C321.146,50.839 326.437,48.958 332.769,49.206C339.03,49.452 344.113,51.694 344.69,54.34C352.281,56.326 358.536,60.575 362.234,68.65C365.864,76.577 365.438,84.002 362.3,90.953C363.159,93.446 361.492,98.167 357.995,102.556C354.385,107.087 349.996,109.797 347.399,109.309C347.262,109.428 347.124,109.546 346.985,109.665C342.007,113.921 322.966,131.259 308.196,141.092L316.715,172.184C307.451,179.43 298.039,179.814 288.467,172.856L293.95,148.32C281.147,152.332 267.546,150.192 256.766,143.246Z" style="fill:url(#_Linear1);"/>
    </g>
    <defs>
        <linearGradient id="_Linear1" x1="0" y1="0" x2="1" y2="0" gradientUnits="userSpaceOnUse" gradientTransform="matrix(-259.195,185.139,-185.139,-259.195,351.227,66.096)"><stop offset="0" style="stop-color:rgb(246,126,32);stop-opacity:1"/><stop offset="0.25" style="stop-color:rgb(248,138,23);stop-opacity:1"/><stop offset="0.54" style="stop-color:rgb(255,171,0);stop-opacity:1"/><stop offset="1" style="stop-color:white;stop-opacity:1"/></linearGradient>
    </defs>
</svg>
