<?xml version="1.0" encoding="UTF-8"?><svg id="a" xmlns="http://www.w3.org/2000/svg" xmlns:xlink="http://www.w3.org/1999/xlink" viewBox="0 0 1040.51 216.71"><defs><linearGradient id="b" x1="157.52" y1="-904.38" x2="207.02" y2="-1054.38" gradientTransform="translate(0 -872.11) scale(1 -1)" gradientUnits="userSpaceOnUse"><stop offset=".07" stop-color="#96b8fd"/><stop offset=".37" stop-color="#1249d8"/><stop offset=".69" stop-color="#1249d8"/><stop offset="1" stop-color="#3de8ff"/></linearGradient><linearGradient id="c" x1="-7.38" y1="-943.07" x2="163.62" y2="-962.07" gradientTransform="translate(0 -872.11) scale(1 -1)" gradientUnits="userSpaceOnUse"><stop offset=".05" stop-color="#63d0ff"/><stop offset=".47" stop-color="#1249d8"/><stop offset=".68" stop-color="#1249d8"/><stop offset=".96" stop-color="#ff86b9"/></linearGradient></defs><path d="M638.56,168c0,2.76,2.23,5,4.99,5h14.11c2.75,0,4.99-2.24,4.99-5v-97.04c0-2.76-2.23-5-4.99-5h-14.11c-2.75,0-4.99,2.24-4.99,5v97.04Z" fill="#1249d8"/><path d="M639.61,46.44c3.07,3.08,6.7,4.62,10.89,4.62s7.96-1.54,10.89-4.62c3.07-3.08,4.61-6.72,4.61-10.91s-1.54-7.84-4.61-10.91c-2.93-3.08-6.56-4.62-10.89-4.62s-7.82,1.54-10.89,4.62c-3.07,3.08-4.61,6.72-4.61,10.91s1.54,7.84,4.61,10.91Z" fill="#1249d8"/><path d="M567.75,89.13h21.06c3.39,0,6.14,2.76,6.14,6.16v15.87c0,20.28-16.39,36.72-36.61,36.72-3.47,0-6.28-2.82-6.28-6.29v-36.71c0-8.69,7.02-15.74,15.69-15.74ZM528,104.86c0-22.02,17.79-39.86,39.75-39.86h21.06c16.68,0,30.2,13.56,30.2,30.28,0,27.19-.05,54.38-.05,81.57,0,22.02-17.79,39.86-39.75,39.86h-45.23c-2.76,0-5-2.24-5-5v-14.13c0-2.76,2.24-5,5-5h45.23c8.66,0,15.69-7.04,15.69-15.74v-13.85c-.09-1.88-.64-2.67-3.09-1.09-9.59,6.38-21.1,10.09-33.47,10.09-16.75,0-30.33-13.62-30.33-30.42v-36.71Z" fill="#1249d8" fill-rule="evenodd"/><path d="M483.79,168c0,2.76,2.38,5,5.31,5h15.03c2.93,0,5.31-2.24,5.31-5v-97.04c0-2.76-2.38-5-5.31-5h-15.03c-2.93,0-5.31,2.24-5.31,5v97.04Z" fill="#1249d8"/><path d="M484.91,46.44c3.27,3.08,7.14,4.62,11.59,4.62s8.47-1.54,11.59-4.62c3.27-3.08,4.91-6.72,4.91-10.91s-1.64-7.84-4.91-10.91c-3.12-3.08-6.99-4.62-11.59-4.62s-8.32,1.54-11.59,4.62c-3.27,3.08-4.91,6.72-4.91,10.91s1.64,7.84,4.91,10.91Z" fill="#1249d8"/><path d="M411.75,89.13h21.06c3.39,0,6.14,2.76,6.14,6.16v15.87c0,20.28-16.39,36.72-36.61,36.72-3.47,0-6.28-2.82-6.28-6.29v-36.71c0-8.69,7.02-15.74,15.69-15.74ZM372,104.86c0-22.02,17.8-39.86,39.75-39.86h21.06c16.68,0,30.2,13.56,30.2,30.28v73.17c0,1.96-2.13,3.55-4.76,3.55h-13.48c-2.63,0-4.76-1.59-4.76-3.55v-5.66c-.02-2.26-.44-3.34-3.14-1.6h0c-9.8,6.81-21.7,10.81-34.53,10.81-16.75,0-30.33-13.62-30.33-30.42v-36.71Z" fill="#1249d8" fill-rule="evenodd"/><path d="M257.34,172c-3.5,0-6.34-2.84-6.34-6.34V33.34c0-3.5,2.84-6.34,6.34-6.34h11.96c3.5,0,6.34,2.84,6.34,6.34v50.08c0,3.5,2.84,6.34,6.34,6.34h13.02c5.24,0,10.01-.97,14.29-2.9,4.42-2.07,7.87-5.04,10.35-8.91,2.62-3.87,3.93-8.49,3.93-13.88v-30.74c0-3.5,2.84-6.34,6.34-6.34h11.96c3.5,0,6.34,2.84,6.34,6.34v30.53c0,9.53-2.35,17.88-7.04,25.07-3.59,5.49-8.07,10.06-13.44,13.7-2.8,1.9-4.08,5.5-2.67,8.58l15.7,34.28c.69,1.66,1.59,2.83,2.69,3.52,1.1.69,2.55,1.04,4.35,1.04h5.88c3.5,0,6.34,2.84,6.34,6.34v9.27c0,3.5-2.84,6.34-6.34,6.34h-9.6c-6.49,0-11.87-1.38-16.15-4.14-4.14-2.76-7.32-6.56-9.52-11.39l-18.88-41.18c-1.09-2.38-3.56-3.82-6.17-3.56h-11.36c-3.5,0-6.34,2.84-6.34,6.34v47.6c0,3.5-2.84,6.34-6.34,6.34h-11.96Z" fill="#1249d8"/><path d="M161.22,58.63c5.38-3.12,11.42-4.63,18.02-4.63,4.99,0,10.3-.1,15.08-.1,4.24,0,7.67-3.44,7.67-7.67v-12.36c0-3.79,3.13-6.87,7-6.87h9c3.87,0,7,3.07,7,6.87,0,12.35,0,24.71,0,37.06,0,3.9-2.91,7.13-6.69,7.61h-37.34c-2.02,0-3.74.49-5.27,1.45-1.62,1.01-2.86,2.29-3.78,3.87-.83,1.61-1.24,3.31-1.24,5.17,0,1.97.42,3.72,1.22,5.29.91,1.49,2.1,2.73,3.62,3.74,1.52.85,3.26,1.31,5.29,1.31h10.68c7.18,0,13.58,1.39,19.07,4.36,5.51,2.92,9.82,7,12.82,12.23,3.1,5.24,4.61,11.18,4.61,17.7,0,7.48-1.52,14.32-4.71,20.09-3.05,5.59-7.31,10.01-12.74,13.18h-.01s-.01.01-.01.01c-5.35,3.07-11.36,4.57-17.93,4.57h-50.81c-4.28,0-7.78-3.45-7.78-7.76v-8.79c0-4.31,3.51-7.76,7.78-7.76h48.47c2.02,0,3.96-.47,5.67-1.55,1.75-1.1,3.04-2.48,3.95-4.14v-.03s.03-.03.03-.03c1.03-1.82,1.51-3.62,1.51-5.48,0-2.18-.48-4.04-1.38-5.69-1.89-3.45-5.59-5.38-9.46-5.38l-10.22.1c-6.73,0-12.92-1.38-18.47-4.22l-.05-.02-.04-.03c-5.42-2.96-9.76-7.07-12.96-12.29-3.27-5.35-4.83-11.55-4.83-18.47s1.49-13.1,4.61-18.52c3.07-5.43,7.28-9.73,12.62-12.82Z" fill="url(#b)" fill-rule="evenodd"/><path d="M163.58,0H7.42C3.04,0,0,3.74,0,7.69v8.62c0,3.95,3.04,7.69,7.42,7.69,15.27,0,30.54,0,45.81,0,4.24,0,7.67,3.44,7.67,7.67,0,35.37.06,70.75.1,106.12,0,6.17,1.31,11.88,4,17.07v.03s.03.03.03.03c2.79,5.17,6.68,9.35,11.62,12.47l.03.02.03.02c5.05,3.07,10.86,4.54,17.28,4.56h7.54c3.57,0,6.46-2.8,6.46-6.26v-11.48c0-3.46-2.89-6.33-6.46-6.33h-7.27c-2.25,0-3.88-.8-5.23-2.25-1.45-1.56-2.16-3.35-2.16-5.6.04-36.1.13-72.2.13-108.3,0-4.24,3.43-7.67,7.67-7.67,22.82,0,45.96-.1,68.91-.1,4.38,0,7.42-3.74,7.42-7.69V7.69c0-3.95-3.04-7.69-7.42-7.69Z" fill="url(#c)" fill-rule="evenodd"/><path d="M702.85,160.43c0-39.62,47.26-44.24,47.26-64.77,0-7.64-4.77-13.21-14.16-13.21-7.96,0-13.84,2.39-17.19,3.66-3.34,1.43-7.48,1.27-9.23-2.55l-2.39-5.25c-1.75-3.98,0-7.8,3.82-9.55,5.09-2.23,14.32-5.57,26.1-5.57,20.69,0,36.12,13.05,36.12,32.46,0,30.08-45.67,40.58-45.67,58.56h38.35c4.3,0,7.16,2.87,7.16,7.16v4.3c0,4.3-2.87,7.16-7.16,7.16h-55.86c-4.3,0-7.16-2.86-7.16-7.16v-5.25Z" fill="#1249d8"/><path d="M789.73,107.12c0-30.08,17.66-43.92,39.62-43.92s39.62,13.84,39.62,43.92v23.71c0,30.24-18.14,44.08-39.62,44.08s-39.62-13.84-39.62-44.08v-23.71ZM846.38,130.83v-23.71c0-18.3-7.32-24.67-17.03-24.67s-17.03,6.37-17.03,24.67v23.71c0,18.3,7.32,24.83,17.03,24.83s17.03-6.52,17.03-24.83Z" fill="#1249d8"/><path d="M882.66,160.43c0-39.62,47.26-44.24,47.26-64.77,0-7.64-4.77-13.21-14.16-13.21-7.96,0-13.84,2.39-17.19,3.66-3.34,1.43-7.48,1.27-9.23-2.55l-2.39-5.25c-1.75-3.98,0-7.8,3.82-9.55,5.09-2.23,14.32-5.57,26.1-5.57,20.69,0,36.12,13.05,36.12,32.46,0,30.08-45.67,40.58-45.67,58.56h38.35c4.3,0,7.16,2.87,7.16,7.16v4.3c0,4.3-2.87,7.16-7.16,7.16h-55.86c-4.3,0-7.16-2.86-7.16-7.16v-5.25Z" fill="#1249d8"/><path d="M969.22,162.82l1.27-5.41c.96-3.98,4.77-5.73,8.91-4.62,3.34.8,10.82,2.86,19.73,2.86,9.39,0,18.3-6.05,18.3-18.3,0-10.66-7.64-15.44-20.37-15.44h-16.07c-4.3,0-7.16-2.86-7-7.16l1.59-42.49c.16-4.3,3.02-7,7.32-7h47.42c4.3,0,6.52,2.55,5.73,7l-1.11,6.21c-.8,4.3-3.18,6.05-7.48,6.05h-31.67l-.95,19.1h4.3c24.35,0,41.37,10.66,41.37,33.58,0,25.62-21.48,37.71-40.58,37.71-10.82,0-20.69-2.23-25.62-3.5-4.14-1.11-6.05-4.46-5.09-8.59Z" fill="#1249d8"/></svg>