<?xml version="1.0" encoding="UTF-8"?>
<svg id="_レイヤー_2" data-name="レイヤー_2" xmlns="http://www.w3.org/2000/svg" viewBox="0 0 1548.15 166.66">
  <defs>
    <style>
      .cls-1 {
        fill: none;
      }

      .cls-2 {
        fill: #d22550;
      }

      .cls-3 {
        fill: #005bac;
      }
    </style>
  </defs>
  <g id="_レイヤー_1-2" data-name="レイヤー_1">
    <g>
      <g>
        <g>
          <path class="cls-3" d="M261.51,126.49h7.09c.36,0,.81-.25,1-.56l29.35-48.05,15.96,54.98c.1.35.48.63.84.63h30.8c.36,0,.57-.28.46-.63l-32.49-102.86c-.11-.34-.5-.62-.85-.62h-11.57c-.36,0-.81.25-1.01.55l-39.57,61.36-39.57-61.36c-.2-.3-.65-.55-1.01-.55h-11.57c-.36,0-.74.28-.85.62l-32.49,102.86c-.1.35.1.63.46.63h30.8c.36,0,.74-.28.84-.63l15.96-54.98,29.35,48.05c.18.31.63.56.99.56h7.09Z"/>
          <path class="cls-3" d="M177.41,75.25s0-.01,0-.01c-.06-.29-.33-.52-.64-.52h-87.5c-4.21,0-7.98,2.98-8.58,7.15-.75,5.2,3.26,9.66,8.32,9.66h52.15c-6.21,16.41-27.21,28.48-52.15,28.48-29.84,0-54.02-17.27-54.02-38.58s24.18-38.57,54.02-38.57c16.3,0,30.91,5.15,40.81,13.31.03.03.07.05.1.08.11.07.23.11.36.11h35.86c.36,0,.66-.3.66-.66,0-.16-.06-.3-.16-.42-.02-.02-.04-.04-.06-.06-15.26-16.26-44.28-27.25-77.58-27.25C39.85,27.98,0,51.91,0,81.44s39.85,53.45,89,53.45,89-23.93,89-53.45c0-2.09-.2-4.15-.59-6.18"/>
          <path class="cls-3" d="M434.01,27.98c-49.16,0-89,23.93-89,53.45s39.85,53.45,89,53.45,89-23.93,89-53.45-39.84-53.45-89-53.45M434.01,120.01c-29.84,0-54.02-17.27-54.02-38.58s24.18-38.57,54.02-38.57,54.02,17.27,54.02,38.57-24.18,38.58-54.02,38.58"/>
        </g>
        <g>
          <path class="cls-2" d="M891.56,74.7h21.2l3.39-13.61h-21.2l4.08-16.36h-21.84l-4.08,16.36h-30.78l4.08-16.36h-21.84l-4.08,16.36h-12.58l-3.39,13.61h12.58l-8.47,33.97c-2.36,9.47-1.84,16.11,1.92,20.26,3.23,3.67,9.48,5.95,17.67,5.95,7.03,0,13.08-.85,16.68-1.88l3.02-13.9c-2.1.44-5.04.8-8.85.8-8.52,0-10.28-4.49-8.07-13.33l7.95-31.88h30.78l-8.47,33.97c-2.36,9.47-1.84,16.11,1.92,20.26,3.23,3.67,9.48,5.95,17.67,5.95,7.03,0,13.08-.85,16.68-1.88l3.02-13.9c-2.1.44-5.04.8-8.85.8-8.52,0-10.28-4.49-8.07-13.33l7.95-31.88Z"/>
          <path class="cls-2" d="M948.54,113.41c6.34,3.39,16.54,6.37,27.9,6.37,14.22,0,23.54-5.48,25.58-13.65,1.88-7.55-3.19-12-17.48-16.59-18.69-5.86-29.36-14.72-25.78-29.05,4.08-16.38,23.87-28.71,50.34-28.71,13.23,0,22.32,2.31,28.01,4.94l-9.01,14.74c-3.94-1.89-11.73-4.75-23.19-4.75-14.15,0-21.69,6.17-23.15,12.05-1.91,7.67,4.24,11.28,19.26,16.37,19.54,6.63,27.56,15.35,23.97,29.73-4.01,16.09-22.27,30.04-53.75,30.04-12.91,0-25.56-3.01-31.4-6.36l8.7-15.12Z"/>
          <path class="cls-2" d="M1186.51,131.49c-5.06,1.79-13.64,3.4-24.7,3.4-27.63,0-41.81-14.53-36.22-36.94,5.39-21.63,27.61-38.44,58.61-38.44,8.23,0,14.82,1.32,19.46,3.14l-3.62,14.5c-3.23-1.43-10.74-3.44-18.68-3.44-17,0-29.6,10.18-32.83,23.42-3.69,14.82,6.06,23.31,21.25,23.31,7.63,0,15.53-1.71,20.26-3.2l-3.54,14.24Z"/>
          <path class="cls-2" d="M1304.84,84.32c2.41-9.68,3.94-16.79,5.07-23.22h21.41l-1.45,5.89h1.58c6.31-5.05,16.12-7.53,23.73-7.53,2.17,0,3.43.07,5.13.4l-4.57,18.27c-6.12-1.58-22.47-.55-28.04,3.97l-12.78,51.23h-22.3l12.22-49.01Z"/>
          <path class="cls-2" d="M1353.16,133.33l18.01-72.24h22.3l-18.01,72.24h-22.3ZM1399.82,40.88c-1.33,5.46-7.26,9.85-15.16,9.85-7.39,0-11.14-4.4-9.75-9.85,1.36-5.56,7.45-9.87,14.94-9.87s11.3,4.26,9.97,9.87Z"/>
          <path class="cls-2" d="M1524.39,61.1l-23.42,38.57c-2.81,4.66-5.82,10.1-8.21,14.16h-.52c-.3-4.01-.83-9.53-1.47-14.01l-6.23-38.72h-45.66l4.08-16.36h-21.84l-4.08,16.36h-12.58l-3.39,13.61h12.58l-8.47,33.97c-2.36,9.47-1.84,16.11,1.92,20.26,3.23,3.67,9.48,5.95,17.67,5.95,7.03,0,13.08-.85,16.68-1.88l3.02-13.9c-2.1.44-5.04.8-8.85.8-8.52,0-10.28-4.49-8.07-13.33l7.95-31.88h27.74s12.59,52.72,12.59,52.72c.5,1.7.48,2.77.28,3.56-.22.89-1.01,1.96-2.2,3.21-4.31,4.97-10.24,9.36-15.11,11.52-2.64,1.17-6.53,1.87-10.45,1.87l-4.76,19.09c5.69-.6,17.65-3.58,27.97-9.83,12.25-7.5,23.41-19.48,42.23-46.44l34.36-49.29h-23.76Z"/>
          <path class="cls-2" d="M1262.74,104.51c-2.32,6.99-7.4,15.58-19.21,15.58s-17.84-5.96-14.85-17.95l10.23-41.04h-22.3l-10.06,40.34c-5.57,22.36,17.2,33.53,33.26,33.53,21.47,0,39.04-5.68,44.71-28.41l11.33-45.46h-22.3l-10.82,43.42Z"/>
          <path class="cls-2" d="M637.76,46.99h37.94l3.41-13.66h-52.02c-11.02,0-20.56,7.65-22.95,18.4l-16.4,65.44-11.23-18.07h-29.38l8.49,13.66h15.29l12.78,20.56h22.17l11.3-44.75h35.95l3.41-13.66h-35.91s4.49-17.78,4.49-17.78c1.32-5.93,6.58-10.15,12.66-10.15Z"/>
          <path class="cls-2" d="M770.66,59.51c-37,0-63.01,24.6-63.01,50.05,0,14.91,10.36,25.33,26.07,25.33,9,0,18.3-3.03,26.13-11.3l-2.41,9.67h21.18l17.72-71.09s-11.79-2.66-25.69-2.66ZM742.2,120.45c-9.16,0-12.65-6.4-12.61-14.16.11-21.65,20.84-37.46,42.67-32.44h0s-3.23,16.9-6.17,24.73c-5.33,14.22-15.34,21.87-23.89,21.87Z"/>
          <path class="cls-2" d="M1055.04,102.27c-2.67,13.09,8.26,18.81,22.52,18.81,10.25,0,19.96-1.67,27.2-3.7l-3.3,13.25c-8.2,2.62-17.73,4.26-30.52,4.26-28.61,0-41.76-14.49-36.24-36.62,4.97-19.94,24.43-38.8,52.77-38.8s33.16,19.3,29.21,35.13c-.85,3.4-1.89,6.11-2.7,7.67h-58.95ZM1096.97,89.54c1.76-6.69.94-17.6-13.99-17.6-13.71,0-21.97,10.21-24.8,17.6h38.79Z"/>
          <polygon class="cls-2" points="690.52 31.52 665.13 133.33 686.43 133.33 712.7 27.98 690.52 31.52"/>
        </g>
      </g>
      <rect class="cls-1" width="1548.15" height="166.66"/>
    </g>
  </g>
</svg>