<svg width="1001" height="440" viewBox="0 0 1001 440" fill="none" xmlns="http://www.w3.org/2000/svg">
<rect width="1000" height="440" transform="translate(0.185303)" fill="white"/>
<path d="M834.734 125.435C828.113 125.435 825.848 131.368 825.848 131.368L771.484 267.282L717.294 131.368C717.294 131.368 714.854 125.435 708.407 125.435C698.475 125.435 680.528 125.435 677.043 125.435C672.339 125.435 665.369 129.623 667.983 138.346C671.119 146.023 724.089 278.797 735.938 308.632C738.552 314.564 743.953 314.564 744.65 314.564C745.347 314.564 797.098 314.564 797.969 314.564C798.84 314.564 804.416 314.564 806.855 308.458C819.227 277.75 880.038 125.435 880.038 125.435C880.038 125.435 841.356 125.435 834.734 125.435Z" fill="black"/>
<path d="M549.67 120.725C494.958 120.725 450.525 165.215 450.525 220C450.525 274.784 494.958 319.275 549.67 319.275C604.383 319.275 648.816 274.784 648.816 220C648.816 165.215 604.383 120.725 549.67 120.725ZM549.67 271.993C520.92 271.993 497.746 248.788 497.746 220C497.746 191.212 520.92 168.007 549.67 168.007C578.421 168.007 601.595 191.212 601.595 220C601.595 248.788 578.421 271.993 549.67 271.993Z" fill="black"/>
<path d="M328.032 125.435C303.986 125.435 282.206 135.555 266.698 151.606C251.19 135.38 229.41 125.435 205.364 125.435C189.856 125.435 175.22 129.623 162.674 136.951L158.144 125.435C158.144 125.435 135.492 125.435 129.916 125.435C124.514 125.435 120.333 129.797 120.333 134.857C120.333 138.87 120.333 300.257 120.333 304.968C120.333 310.377 124.514 314.39 129.742 314.39C133.052 314.39 148.037 314.39 157.969 314.39C163.371 314.39 167.379 309.679 167.379 304.968C167.379 300.257 167.379 210.404 167.379 210.404C167.379 189.467 184.28 172.543 205.19 172.543C225.925 172.543 242.826 189.467 243.001 210.229V210.404C243.001 210.404 243.001 300.083 243.001 304.794C243.001 309.504 246.66 314.215 252.41 314.215C255.546 314.215 270.531 314.215 280.637 314.215C287.956 314.215 290.047 307.76 290.047 304.794C290.047 302.351 290.047 210.404 290.047 210.404C290.047 189.641 306.948 172.718 327.858 172.718C348.767 172.718 365.669 189.641 365.669 210.578C365.669 210.578 365.669 300.432 365.669 305.143C365.669 310.551 369.851 314.564 375.078 314.564C379.782 314.564 412.889 314.564 412.889 314.564V210.578C412.889 163.471 374.904 125.435 328.032 125.435Z" fill="black"/>
</svg>
