<?xml version="1.0" encoding="utf-8"?>
<!-- Generator: Adobe Illustrator 26.0.1, SVG Export Plug-In . SVG Version: 6.00 Build 0)  -->
<svg version="1.1" id="レイヤー_1" xmlns="http://www.w3.org/2000/svg" xmlns:xlink="http://www.w3.org/1999/xlink" x="0px"
	 y="0px" viewBox="0 0 436 113.7" style="enable-background:new 0 0 436 113.7;" xml:space="preserve">
<g>
	<path d="M410,2.7c-3.8,0-5.1,3.4-5.1,3.4L373.7,84L342.6,6.1c0,0-1.4-3.4-5.1-3.4c-5.7,0-16,0-18,0c-2.7,0-6.7,2.4-5.2,7.4
		c1.8,4.4,32.2,80.5,39,97.6c1.5,3.4,4.6,3.4,5,3.4c0.4,0,30.1,0,30.6,0c0.5,0,3.7,0,5.1-3.5C401.1,90,436,2.7,436,2.7
		S413.8,2.7,410,2.7z"/>
	<path d="M246.4,0c-31.4,0-56.9,25.5-56.9,56.9c0,31.4,25.5,56.9,56.9,56.9s56.9-25.5,56.9-56.9C303.3,25.5,277.8,0,246.4,0z
		 M246.4,86.7c-16.5,0-29.8-13.3-29.8-29.8s13.3-29.8,29.8-29.8c16.5,0,29.8,13.3,29.8,29.8S262.9,86.7,246.4,86.7z"/>
	<path d="M119.2,2.7c-13.8,0-26.3,5.8-35.2,15c-8.9-9.3-21.4-15-35.2-15c-8.9,0-17.3,2.4-24.5,6.6l-2.6-6.6c0,0-13,0-16.2,0
		C2.4,2.7,0,5.2,0,8.1c0,2.3,0,94.8,0,97.5c0,3.1,2.4,5.4,5.4,5.4c1.9,0,10.5,0,16.2,0c3.1,0,5.4-2.7,5.4-5.4c0-2.7,0-54.2,0-54.2
		c0-12,9.7-21.7,21.7-21.7c11.9,0,21.6,9.7,21.7,21.6v0.1c0,0,0,51.4,0,54.1c0,2.7,2.1,5.4,5.4,5.4c1.8,0,10.4,0,16.2,0
		c4.2,0,5.4-3.7,5.4-5.4c0-1.4,0-54.1,0-54.1c0,0,0,0,0,0c0,0,0,0,0,0c0-11.9,9.7-21.6,21.7-21.6c12,0,21.7,9.7,21.7,21.7
		c0,0,0,51.5,0,54.2c0,3.1,2.4,5.4,5.4,5.4c2.7,0,21.7,0,21.7,0V51.5C167.9,24.5,146.1,2.7,119.2,2.7z"/>
</g>
</svg>
